<?xml version="1.0" encoding="UTF-8"?>
<!DOCTYPE svg PUBLIC "-//W3C//DTD SVG 1.1//EN" "http://www.w3.org/Graphics/SVG/1.1/DTD/svg11.dtd">
<!-- Creator: CorelDRAW -->
<svg xmlns="http://www.w3.org/2000/svg" xml:space="preserve" width="11.6929in" height="8.26772in" version="1.1" style="shape-rendering:geometricPrecision; text-rendering:geometricPrecision; image-rendering:optimizeQuality; fill-rule:evenodd; clip-rule:evenodd"
viewBox="0 0 11692.91 8267.72"
 xmlns:xlink="http://www.w3.org/1999/xlink"
 xmlns:xodm="http://www.corel.com/coreldraw/odm/2003">
 <defs>
  <style type="text/css">
   <![CDATA[
    .fil0 {fill:#FFF}
   ]]>
  </style>
 </defs>
 <g id="Layer_x0020_1">
  <metadata id="CorelCorpID_0Corel-Layer"/>
  <g id="_2407993851936">
   <path class="fil0" d="M5197.07 4116.28c543.31,0 1197.25,-22.69 1589.01,-279.94 446.27,-293.03 530.06,-731.12 283.26,-1287.18 -131.02,144.58 -162.36,383.63 -392.86,560.05 -787.54,602.75 -1847.11,151.91 -2221.91,144.25 -239.43,739.57 -248.46,1486.69 317.66,1901.64 563.45,412.98 1446.62,207.65 2043.03,3.52l-55.05 -651.34c-139.33,-8.63 -562.75,201.73 -973.69,171.24 -322.72,-23.95 -622.44,-207.87 -589.46,-562.23z"/>
   <path class="fil0" d="M4639.09 2875.18c426.14,24.03 1761.87,409.65 2213.41,-485.1 -374.31,-460.86 -1748.86,-344.91 -2213.41,485.1z"/>
  </g>
 </g>
</svg>
